# xmcd CD database file
#
# Track frame offsets:
#	150
#	19980
#	35430
#	53245
#	69197
#	88797
#	108370
#	123270
#	140332
#	156557
#	171570
#	186632
#	203040
#	216945
#	235272
#
# Disc length: 3366 seconds
#
# Revision: 0
# Processed by: cddbd v1.5.2PL0 Copyright (c) Steve Scherf et al.
# Submitted via: CDex 1.51
#
DISCID=df0d240f
DTITLE=Various Artist - Country Lovin' - Disc One
DYEAR=2007
DGENRE=Country
TTITLE0=I Swear - John Michael Montgomery
TTITLE1=Nobody Knows - Kevin Sharp
TTITLE2=What Might Have Been - Little Texas
TTITLE3=Can I Trust You With My Heart - Travis Tritt
TTITLE4=This Woman And This Man - Clay Walker
TTITLE5=The Keeper Of The Stars - Tracy Byrd
TTITLE6=Ain't That Lonely Yet - Dwight Yoakam
TTITLE7=No Doubt About It - Real McCoy
TTITLE8=Can't Break It To My Heart - Tracy Lawrence
TTITLE9=Not On Your Love - Jeff Carson
TTITLE10=Someone Else's Star - Bryan White
TTITLE11=I Do - Paul Brandy
TTITLE12=Forever Together - Randy Travis
TTITLE13=Somewhere In The Vicinity Of My Heart - Shenandoah With Alison Kraus
TTITLE14=What A Crying Shame - The Mavericks
EXTD=YEAR: 2007
EXTT0=
EXTT1=
EXTT2=
EXTT3=
EXTT4=
EXTT5=
EXTT6=
EXTT7=
EXTT8=
EXTT9=
EXTT10=
EXTT11=
EXTT12=
EXTT13=
EXTT14=
PLAYORDER=
